<svg width="160" height="47" viewBox="0 0 160 47" fill="none" xmlns="http://www.w3.org/2000/svg">
<path d="M154.074 47H5.92593C2.66667 47 0 44.3562 0 41.125V5.875C0 2.64375 2.66667 0 5.92593 0H154.074C157.333 0 160 2.64375 160 5.875V41.125C160 44.3562 157.333 47 154.074 47Z" fill="black"/>
<path d="M154.074 0.94C156.824 0.94 159.052 3.149 159.052 5.875V41.125C159.052 43.851 156.824 46.06 154.074 46.06H5.92593C3.1763 46.06 0.948148 43.851 0.948148 41.125V5.875C0.948148 3.149 3.1763 0.94 5.92593 0.94H154.074ZM154.074 0H5.92593C2.66667 0 0 2.64375 0 5.875V41.125C0 44.3562 2.66667 47 5.92593 47H154.074C157.333 47 160 44.3562 160 41.125V5.875C160 2.64375 157.333 0 154.074 0Z" fill="#A6A6A6"/>
<path d="M80.7578 25.5572C77.9726 25.5572 75.6971 27.6604 75.6971 30.5509C75.6971 33.4297 77.9726 35.5447 80.7578 35.5447C83.543 35.5447 85.8186 33.4297 85.8186 30.5509C85.8186 27.6604 83.543 25.5572 80.7578 25.5572ZM80.7578 33.5824C79.2289 33.5824 77.9134 32.3369 77.9134 30.5509C77.9134 28.7532 79.2289 27.5194 80.7578 27.5194C82.2867 27.5194 83.6023 28.7532 83.6023 30.5509C83.6023 32.3369 82.2749 33.5824 80.7578 33.5824ZM69.7119 25.5572C66.9267 25.5572 64.6511 27.6604 64.6511 30.5509C64.6511 33.4297 66.9267 35.5447 69.7119 35.5447C72.4971 35.5447 74.7726 33.4297 74.7726 30.5509C74.7726 27.6604 72.4971 25.5572 69.7119 25.5572ZM69.7119 33.5824C68.183 33.5824 66.8674 32.3369 66.8674 30.5509C66.8674 28.7532 68.183 27.5194 69.7119 27.5194C71.2408 27.5194 72.5563 28.7532 72.5563 30.5509C72.5563 32.3369 71.2408 33.5824 69.7119 33.5824ZM56.58 27.0964V29.2114H61.7C61.546 30.3982 61.143 31.2794 60.5386 31.8787C59.7919 32.6189 58.6304 33.4297 56.5919 33.4297C53.4393 33.4297 50.9741 30.9152 50.9741 27.7897C50.9741 24.6642 53.4393 22.1497 56.5919 22.1497C58.2867 22.1497 59.5311 22.8077 60.4437 23.6654L61.9489 22.1732C60.6689 20.9629 58.9741 20.0347 56.58 20.0347C52.266 20.0347 48.6393 23.5127 48.6393 27.8014C48.6393 32.0784 52.266 35.5682 56.58 35.5682C58.9149 35.5682 60.6689 34.8162 62.0437 33.3944C63.4541 31.9962 63.8926 30.0222 63.8926 28.4359C63.8926 27.9424 63.8571 27.4842 63.7741 27.1082H56.58V27.0964ZM110.281 28.7414C109.866 27.6252 108.586 25.5572 105.967 25.5572C103.371 25.5572 101.214 27.5782 101.214 30.5509C101.214 33.3474 103.347 35.5447 106.216 35.5447C108.527 35.5447 109.866 34.1464 110.411 33.3357L108.693 32.1959C108.124 33.0302 107.342 33.5824 106.216 33.5824C105.09 33.5824 104.284 33.0654 103.774 32.0667L110.518 29.3054L110.281 28.7414ZM103.407 30.4099C103.347 28.4829 104.912 27.4959 106.038 27.4959C106.915 27.4959 107.662 27.9307 107.91 28.5534L103.407 30.4099ZM97.9311 35.2509H100.147V20.5634H97.9311V35.2509ZM94.3045 26.6734H94.2215C93.7237 26.0859 92.7756 25.5572 91.5667 25.5572C89.0423 25.5572 86.7311 27.7544 86.7311 30.5744C86.7311 33.3709 89.0423 35.5564 91.5667 35.5564C92.7637 35.5564 93.7237 35.0277 94.2215 34.4167H94.2926V35.1334C94.2926 37.0487 93.2615 38.0709 91.6023 38.0709C90.2511 38.0709 89.4097 37.1074 89.066 36.2967L87.1341 37.0957C87.6911 38.4234 89.1608 40.0449 91.6023 40.0449C94.1978 40.0449 96.3904 38.5292 96.3904 34.8397V25.8627H94.2926V26.6734H94.3045ZM91.7563 33.5824C90.2274 33.5824 88.9474 32.3134 88.9474 30.5744C88.9474 28.8119 90.2274 27.5312 91.7563 27.5312C93.2615 27.5312 94.4467 28.8237 94.4467 30.5744C94.4586 32.3134 93.2734 33.5824 91.7563 33.5824ZM120.663 20.5634H115.365V35.2509H117.582V29.6814H120.675C123.128 29.6814 125.534 27.9189 125.534 25.1224C125.534 22.3259 123.104 20.5634 120.663 20.5634ZM120.71 27.6369H117.57V22.5962H120.71C122.37 22.5962 123.306 23.9592 123.306 25.1107C123.306 26.2622 122.37 27.6369 120.71 27.6369ZM134.387 25.5337C132.787 25.5337 131.128 26.2387 130.441 27.7779L132.408 28.5887C132.823 27.7779 133.605 27.5077 134.423 27.5077C135.573 27.5077 136.734 28.1892 136.746 29.3994V29.5522C136.343 29.3289 135.49 28.9882 134.435 28.9882C132.313 28.9882 130.168 30.1397 130.168 32.2899C130.168 34.2522 131.899 35.5212 133.842 35.5212C135.324 35.5212 136.153 34.8632 136.663 34.0877H136.734V35.2274H138.867V29.5992C138.879 26.9907 136.912 25.5337 134.387 25.5337ZM134.115 33.5824C133.392 33.5824 132.384 33.2182 132.384 32.3369C132.384 31.2089 133.641 30.7742 134.731 30.7742C135.703 30.7742 136.165 30.9857 136.746 31.2677C136.58 32.6189 135.395 33.5824 134.115 33.5824ZM146.654 25.8509L144.118 32.2194H144.047L141.416 25.8509H139.033L142.98 34.7574L140.728 39.7042H143.039L149.119 25.8509H146.654ZM126.743 35.2509H128.959V20.5634H126.743V35.2509Z" fill="white"/>
<path d="M12.3738 8.85874C12.0301 9.22299 11.8287 9.78699 11.8287 10.5037V36.4947C11.8287 37.2232 12.0301 37.7872 12.3738 38.1397L12.4568 38.222L27.1412 23.6755V23.4992V23.323L12.4568 8.77649L12.3738 8.85874Z" fill="url(#paint0_linear_1_229)"/>
<path d="M32.0344 28.5288L27.1396 23.6761V23.4998V23.3236L32.0344 18.4708L32.1411 18.5296L37.9366 21.7961C39.5959 22.7243 39.5959 24.2518 37.9366 25.1918L32.1411 28.4583L32.0344 28.5288Z" fill="url(#paint1_linear_1_229)"/>
<path d="M32.1401 28.4672L27.1386 23.4969L12.3712 38.1374C12.9164 38.7132 13.8171 38.7837 14.8364 38.2079L32.1401 28.4672Z" fill="url(#paint2_linear_1_229)"/>
<path d="M32.1418 18.5403L14.8262 8.78783C13.807 8.21208 12.9062 8.28258 12.361 8.85833L27.1403 23.4988L32.1418 18.5403Z" fill="url(#paint3_linear_1_229)"/>
<path opacity="0.2" d="M32.0367 28.3522L14.8278 38.0459C13.8678 38.5864 13.0026 38.5512 12.4574 38.0577L12.3745 38.1399L12.4574 38.2222C13.0145 38.7157 13.8678 38.7509 14.8278 38.2104L32.1433 28.4579L32.0367 28.3522Z" fill="black"/>
<path opacity="0.12" d="M12.3738 37.9769C12.0301 37.6127 11.8287 37.0487 11.8287 36.3319V36.5082C11.8287 37.2367 12.0301 37.8007 12.3738 38.1532L12.4568 38.0709L12.3738 37.9769Z" fill="black"/>
<path opacity="0.12" d="M37.9375 25.0244L32.0234 28.3497L32.1301 28.4554L37.9256 25.1889C38.7553 24.7189 39.1701 24.1079 39.1701 23.4969C39.1108 24.0492 38.696 24.6014 37.9375 25.0244Z" fill="black"/>
<path opacity="0.25" d="M14.8256 8.953L37.9367 21.972C38.6834 22.395 39.11 22.9355 39.1811 23.4995C39.1811 22.8885 38.7663 22.2657 37.9367 21.8075L14.8256 8.7885C13.1663 7.86025 11.8152 8.63575 11.8152 10.5157V10.692C11.8152 8.80025 13.1782 8.02475 14.8256 8.953Z" fill="white"/>
<defs>
<linearGradient id="paint0_linear_1_229" x1="25.8371" y1="10.2333" x2="6.11848" y2="30.1228" gradientUnits="userSpaceOnUse">
<stop stop-color="#00A0FF"/>
<stop offset="0.00657445" stop-color="#00A1FF"/>
<stop offset="0.2601" stop-color="#00BEFF"/>
<stop offset="0.5122" stop-color="#00D2FF"/>
<stop offset="0.7604" stop-color="#00DFFF"/>
<stop offset="1" stop-color="#00E3FF"/>
</linearGradient>
<linearGradient id="paint1_linear_1_229" x1="40.0988" y1="23.5016" x2="11.421" y2="23.5016" gradientUnits="userSpaceOnUse">
<stop stop-color="#FFE000"/>
<stop offset="0.4087" stop-color="#FFBD00"/>
<stop offset="0.7754" stop-color="#FFA500"/>
<stop offset="1" stop-color="#FF9C00"/>
</linearGradient>
<linearGradient id="paint2_linear_1_229" x1="29.4223" y1="26.195" x2="2.68233" y2="53.1668" gradientUnits="userSpaceOnUse">
<stop stop-color="#FF3A44"/>
<stop offset="1" stop-color="#C31162"/>
</linearGradient>
<linearGradient id="paint3_linear_1_229" x1="8.64808" y1="0.20598" x2="20.5887" y2="12.25" gradientUnits="userSpaceOnUse">
<stop stop-color="#32A071"/>
<stop offset="0.0685" stop-color="#2DA771"/>
<stop offset="0.4762" stop-color="#15CF74"/>
<stop offset="0.8009" stop-color="#06E775"/>
<stop offset="1" stop-color="#00F076"/>
</linearGradient>
</defs>
</svg>
