<svg width="569" height="427" viewBox="0 0 569 427" fill="none" xmlns="http://www.w3.org/2000/svg">
<path d="M313.141 245.982C313.151 241.571 316.729 238 321.141 238H561C565.418 238 569 241.582 569 246V300.99C569 305.412 565.412 308.995 560.99 308.99L321.008 308.685C316.586 308.679 313.008 305.088 313.018 300.667L313.141 245.982Z" fill="#AAFF55"/>
<g filter="url(#filter0_f_4_65)">
<path d="M333.74 276.402L369.882 239.125L385.356 254.203L344.417 296.216L333.74 276.402Z" fill="black"/>
</g>
<path d="M412.808 252.992L413.792 272.551L432.697 267.442L414.399 274.421L425.1 290.823L412.808 275.577L400.516 290.823L411.217 274.421L392.919 267.442L411.825 272.551L412.808 252.992Z" fill="black"/>
<rect x="449.406" y="237.96" width="1.30704" height="71.2338" fill="black"/>
<rect x="374.904" y="237.96" width="1.30704" height="71.2338" fill="black"/>
<path d="M294.795 238.839C293.998 236.079 294.742 233.104 296.744 231.044L505.514 16.2041C508.596 13.0324 513.667 12.9632 516.835 16.0497L556.69 54.8858C559.854 57.9693 559.92 63.0342 556.836 66.1985L325.839 303.256C321.557 307.651 314.126 305.787 312.423 299.892L294.795 238.839Z" fill="#AAFF55"/>
<path d="M350.182 232.621L348.351 234.5L341.409 230.33L342.789 228.915L346.655 231.352L348.082 232.365L348.173 232.273L347.189 230.805L344.907 226.741L346.737 224.863L350.85 227.047L352.343 227.993L352.433 227.9L351.384 226.5L348.847 222.698L350.194 221.316L354.533 228.156L352.702 230.035L349.059 228.127L347.047 226.938L346.957 227.031L348.197 229.012L350.182 232.621ZM358.532 224.221C357.16 225.628 355.534 225.916 354.034 224.454C352.686 223.141 352.763 221.359 354.118 219.969C355.464 218.588 357.083 218.376 358.406 219.664C358.558 219.812 358.651 219.936 358.778 220.092L355.428 223.53C356.11 224.128 356.683 224.096 357.479 223.278C358.21 222.529 358.271 222.079 357.909 221.726L357.824 221.643L359.056 220.38L359.149 220.47C360.067 221.365 359.837 222.882 358.532 224.221ZM355.079 220.955C354.348 221.705 354.289 222.271 354.779 222.864L356.963 220.623C356.374 220.115 355.801 220.214 355.079 220.955ZM363.684 218.765L362.453 220.029L356.808 214.528L358.04 213.265L360.281 215.448L363.154 212.5L360.913 210.316L362.145 209.052L367.789 214.553L366.558 215.817L364.292 213.608L361.418 216.557L363.684 218.765ZM369.798 212.66C368.912 213.569 367.957 213.707 367.249 213.017C366.626 212.409 366.69 211.568 367.476 210.577L369.055 208.585L368.895 208.429C368.348 207.895 367.958 207.992 367.301 208.666C366.677 209.306 366.591 209.731 367.071 210.199L367.105 210.232L365.865 211.504L365.84 211.48C364.796 210.462 364.925 208.879 366.279 207.489C367.651 206.082 369.024 206.123 370.127 207.198L372.604 209.612L371.455 210.791L370.486 209.847L370.42 209.915C370.889 210.749 370.71 211.724 369.798 212.66ZM368.405 211.663C368.632 211.884 368.897 211.798 369.259 211.427C370.096 210.568 370.345 209.907 369.78 209.291L368.52 210.921C368.25 211.249 368.203 211.466 368.405 211.663ZM376.291 205.829L374.772 207.388L368.679 205.195L370.05 203.788L374.272 205.439L374.355 205.355L372.603 201.168L373.95 199.787L376.291 205.829ZM380.764 201.407C379.393 202.814 377.766 203.101 376.266 201.64C374.918 200.327 374.995 198.545 376.35 197.155C377.696 195.774 379.316 195.561 380.638 196.85C380.79 196.998 380.883 197.122 381.01 197.278L377.66 200.715C378.342 201.314 378.915 201.281 379.712 200.464C380.443 199.714 380.503 199.264 380.141 198.911L380.057 198.829L381.288 197.566L381.381 197.656C382.299 198.551 382.069 200.068 380.764 201.407ZM377.311 198.141C376.58 198.891 376.521 199.457 377.011 200.05L379.195 197.809C378.606 197.301 378.033 197.4 377.311 198.141ZM387.748 194.072L386.516 195.336L382.009 190.944L379.965 193.042L378.827 191.933L384.147 186.474L385.285 187.582L383.24 189.68L387.748 194.072ZM391.465 190.258L390.233 191.521L384.589 186.021L385.82 184.757L388.533 187.401L388.599 187.333C388.014 186.501 387.841 185.363 388.892 184.285C390 183.148 391.284 183.314 392.261 184.266L394.847 186.787L393.616 188.051L391.408 185.9C390.701 185.21 390.153 185.267 389.381 186.059C388.552 186.91 388.642 187.507 389.35 188.197L391.465 190.258ZM397.737 183.99C396.366 185.397 394.739 185.684 393.239 184.223C391.891 182.909 391.968 181.128 393.323 179.738C394.669 178.357 396.289 178.144 397.611 179.433C397.763 179.581 397.856 179.705 397.983 179.861L394.633 183.298C395.315 183.897 395.888 183.864 396.685 183.047C397.415 182.297 397.476 181.847 397.114 181.494L397.03 181.412L398.261 180.149L398.354 180.239C399.272 181.134 399.042 182.651 397.737 183.99ZM394.284 180.724C393.553 181.474 393.494 182.04 393.984 182.633L396.168 180.392C395.579 179.884 395.006 179.983 394.284 180.724ZM402.89 178.534L401.658 179.798L396.014 174.297L397.68 172.587L401.749 173.973L403.589 174.732L403.679 174.639L402.858 172.836L401.325 168.846L403 167.128L408.645 172.628L407.413 173.892L404.549 171.101L403.705 170.196L403.615 170.289L404.179 171.48L405.557 175.122L404.063 176.655L400.386 175.372L399.182 174.838L399.091 174.931L400.025 175.743L402.89 178.534ZM411.567 169.798C410.163 171.239 408.36 171.37 407.029 170.073C405.681 168.759 405.774 166.961 407.178 165.521C408.582 164.08 410.377 163.94 411.725 165.254C413.056 166.551 412.971 168.357 411.567 169.798ZM410.447 168.706C411.276 167.855 411.243 167.232 410.501 166.509C409.76 165.787 409.119 165.753 408.29 166.604C407.452 167.464 407.51 168.095 408.252 168.818C408.993 169.54 409.609 169.565 410.447 168.706ZM416.495 164.741C415.108 166.165 413.788 166.406 412.811 165.454L412.785 165.429L414.017 164.166L414.093 164.24C414.472 164.609 414.803 164.472 415.501 163.756C416.157 163.082 416.204 162.815 415.951 162.569C415.715 162.339 415.525 162.399 414.973 162.831L413.672 163.879C412.759 164.631 411.92 164.734 411.212 164.044C410.471 163.321 410.497 162.115 411.909 160.666C413.255 159.284 414.541 159.01 415.569 160.011L415.594 160.036L414.363 161.3L414.312 161.25C413.967 160.914 413.626 160.91 412.87 161.685C412.254 162.317 412.208 162.584 412.478 162.846C412.697 163.06 412.904 163.032 413.513 162.542L414.501 161.747C415.728 160.741 416.518 160.69 417.217 161.371C418.009 162.143 417.768 163.435 416.495 164.741ZM421.842 159.086L420.824 160.13C419.863 161.116 418.817 161.263 417.755 160.228L416.104 158.619L415.456 159.285L414.411 158.267L415.06 157.601L414.242 156.805L415.474 155.541L416.291 156.337L417.621 154.973L418.666 155.991L417.336 157.355L418.844 158.825C419.265 159.236 419.53 159.182 419.966 158.736L420.704 157.977L421.842 159.086ZM426.287 154.524L423.635 157.245L417.991 151.745L420.643 149.023C422.408 147.212 424.577 147.093 426.347 148.817C428.116 150.541 428.052 152.713 426.287 154.524ZM421.78 150.132L420.36 151.589L423.73 154.873L425.15 153.416C426.266 152.27 426.389 151.486 425.033 150.165C423.677 148.843 422.897 148.986 421.78 150.132ZM431.971 148.86C430.6 150.267 428.973 150.554 427.474 149.093C426.126 147.779 426.203 145.998 427.557 144.608C428.904 143.226 430.523 143.014 431.846 144.303C431.997 144.451 432.091 144.574 432.217 144.731L428.868 148.168C429.549 148.766 430.123 148.734 430.919 147.917C431.65 147.167 431.711 146.717 431.348 146.364L431.264 146.282L432.496 145.018L432.588 145.108C433.506 146.003 433.277 147.52 431.971 148.86ZM428.518 145.594C427.788 146.343 427.728 146.91 428.219 147.502L430.402 145.262C429.814 144.753 429.241 144.852 428.518 145.594ZM435.857 144.703L434.626 145.967L428.981 140.467L430.213 139.203L435.857 144.703ZM433.083 138.246L431.851 139.51L430.857 138.541L432.089 137.278L433.083 138.246ZM437.733 142.778L436.502 144.042L432.281 139.929L433.513 138.665L437.733 142.778ZM440.654 139.95C439.242 141.399 437.48 141.488 436.149 140.191C434.801 138.877 434.853 137.121 436.265 135.672C437.587 134.316 439.214 134.095 440.31 135.162L440.428 135.277L439.204 136.533L439.137 136.467C438.598 135.942 438.018 136.149 437.378 136.806C436.647 137.556 436.588 138.172 437.372 138.935C438.147 139.691 438.762 139.616 439.492 138.866C440.133 138.209 440.325 137.625 439.786 137.099L439.718 137.033L440.941 135.778L441.059 135.893C442.146 136.952 441.976 138.593 440.654 139.95ZM439.906 131.245L438.674 132.509L437.68 131.54L438.912 130.276L439.906 131.245ZM444.556 135.777L443.325 137.041L439.104 132.927L440.335 131.664L444.556 135.777ZM447.477 132.948C446.073 134.389 444.27 134.52 442.939 133.223C441.591 131.909 441.684 130.111 443.088 128.671C444.492 127.23 446.287 127.091 447.635 128.404C448.966 129.701 448.881 131.508 447.477 132.948ZM446.357 131.856C447.186 131.005 447.153 130.382 446.411 129.659C445.67 128.937 445.029 128.904 444.2 129.755C443.362 130.614 443.421 131.245 444.162 131.968C444.903 132.69 445.519 132.716 446.357 131.856ZM452.027 128.279C450.87 129.467 449.587 129.317 448.643 128.397L446.015 125.836L447.246 124.572L449.454 126.723C450.136 127.388 450.701 127.381 451.481 126.58C452.286 125.755 452.253 125.148 451.537 124.45L449.397 122.365L450.629 121.101L454.849 125.214L453.7 126.394L452.411 125.138L452.345 125.205C452.946 126.004 453.111 127.167 452.027 128.279ZM457.64 122.519C456.253 123.943 454.933 124.184 453.956 123.232L453.931 123.207L455.162 121.944L455.238 122.017C455.617 122.387 455.948 122.249 456.646 121.533C457.303 120.859 457.349 120.593 457.097 120.346C456.861 120.116 456.67 120.177 456.118 120.609L454.818 121.657C453.904 122.409 453.065 122.511 452.357 121.822C451.616 121.099 451.642 119.893 453.054 118.444C454.401 117.062 455.686 116.788 456.714 117.789L456.74 117.814L455.508 119.077L455.457 119.028C455.112 118.692 454.771 118.688 454.016 119.463C453.4 120.095 453.353 120.361 453.623 120.624C453.842 120.838 454.05 120.81 454.659 120.32L455.647 119.525C456.873 118.519 457.663 118.467 458.362 119.149C459.154 119.92 458.913 121.213 457.64 122.519Z" fill="black"/>
<path d="M56.6392 251.595L521.348 4.50539C525.249 2.43114 530.093 3.91209 532.167 7.8132L558.192 56.7586C560.266 60.6597 558.785 65.5037 554.884 67.5779L90.1755 314.668L56.6392 251.595Z" fill="black"/>
<circle cx="344.567" cy="138.567" r="15.3578" transform="rotate(-28 344.567 138.567)" stroke="#AAFF55" stroke-width="0.653521"/>
<path d="M334.5 135.5C337.41 136.043 340.167 137.214 342.579 138.931C344.991 140.647 347.001 142.868 348.468 145.439C346.623 140.499 346.064 138.468 346.137 134.522" stroke="#9EFF42" stroke-width="1.196" stroke-linecap="round" stroke-linejoin="round"/>
<path d="M346.137 134.522C348.844 133.083 349.478 131.009 348.039 128.301C345.331 129.741 344.697 131.815 346.137 134.522Z" stroke="#9EFF42" stroke-width="1.196" stroke-linecap="round" stroke-linejoin="round"/>
<path d="M345.507 131.037C343.622 130.88 341.746 131.426 340.239 132.569C338.731 133.712 337.7 135.372 337.343 137.23C336.986 139.088 337.329 141.012 338.305 142.633C339.281 144.253 340.822 145.455 342.631 146.008C344.44 146.562 346.389 146.426 348.105 145.629C349.82 144.831 351.18 143.427 351.923 141.688C352.666 139.948 352.739 137.995 352.129 136.204C351.519 134.414 350.269 132.912 348.618 131.988" stroke="#9EFF42" stroke-width="1.196" stroke-linecap="round" stroke-linejoin="round"/>
<path d="M368.788 119.82C366.68 120.941 365.054 120.74 364.193 119.12L364.159 119.057L365.717 118.229L365.817 118.416C366.159 119.06 366.619 119.148 368.032 118.397C369.278 117.735 369.47 117.393 369.221 116.926C368.995 116.5 368.673 116.471 367.89 116.727L365.788 117.485C364.437 117.951 363.368 117.719 362.766 116.587C362.208 115.538 362.475 113.985 364.812 112.742C366.951 111.604 368.473 112.061 369.252 113.525L369.285 113.588L367.716 114.422L367.639 114.276C367.286 113.611 366.794 113.513 365.412 114.248C364.291 114.844 364.064 115.245 364.301 115.691C364.517 116.096 364.823 116.12 365.459 115.915L367.578 115.188C369.268 114.609 370.232 115.069 370.74 116.025C371.342 117.157 371.001 118.644 368.788 119.82ZM375.281 116.368C373.546 117.29 371.909 117.068 370.926 115.22C370.043 113.558 370.659 111.885 372.372 110.973C374.076 110.068 375.683 110.359 376.55 111.99C376.649 112.177 376.7 112.323 376.773 112.51L372.536 114.763C373.003 115.541 373.559 115.685 374.566 115.149C375.491 114.658 375.686 114.248 375.448 113.801L375.393 113.697L376.951 112.869L377.012 112.983C377.614 114.115 376.932 115.49 375.281 116.368ZM372.987 112.205C372.063 112.697 371.834 113.218 372.12 113.932L374.883 112.463C374.477 111.799 373.901 111.719 372.987 112.205ZM380.249 113.594L378.691 114.422L375.924 109.218L377.368 108.451L378.102 109.832L378.196 109.782C377.894 108.864 378.102 107.927 379.151 107.369C380.314 106.751 381.217 107.296 381.758 108.314L382.217 109.176L380.659 110.005L380.371 109.465C380.068 108.893 379.707 108.766 379.073 109.103C378.377 109.473 378.299 109.927 378.647 110.581L380.249 113.594ZM388.052 109.444L386.131 110.466L380.996 106.522L382.73 105.599L386.249 108.458L386.353 108.403L385.96 103.882L387.664 102.976L388.052 109.444ZM389.351 101.399L387.794 102.228L387.142 101.002L388.7 100.174L389.351 101.399ZM392.4 107.133L390.842 107.961L388.075 102.757L389.633 101.929L392.4 107.133ZM396.044 105.328C394.257 106.278 392.552 105.826 391.679 104.185C390.795 102.523 391.38 100.867 393.167 99.9169C394.839 99.0278 396.456 99.3135 397.174 100.664L397.252 100.809L395.704 101.632L395.66 101.549C395.306 100.884 394.691 100.905 393.881 101.336C392.957 101.827 392.713 102.396 393.227 103.362C393.735 104.318 394.343 104.434 395.267 103.943C396.077 103.512 396.438 103.013 396.085 102.349L396.041 102.266L397.588 101.443L397.666 101.588C398.378 102.928 397.716 104.439 396.044 105.328ZM402.292 102.006C400.557 102.928 398.92 102.706 397.937 100.858C397.054 99.1958 397.67 97.5227 399.383 96.6114C401.087 95.7057 402.694 95.997 403.561 97.6277C403.66 97.8146 403.711 97.9607 403.784 98.1483L399.547 100.402C400.013 101.179 400.57 101.323 401.577 100.787C402.501 100.296 402.696 99.8859 402.459 99.4392L402.404 99.3354L403.962 98.507L404.022 98.6212C404.624 99.7534 403.943 101.128 402.292 102.006ZM399.998 97.8432C399.074 98.3347 398.845 98.8562 399.131 99.57L401.894 98.101C401.488 97.4375 400.912 97.3572 399.998 97.8432Z" fill="white"/>
<path d="M375.392 136.9L374.27 137.497L370.57 130.538L372.097 129.726L376.244 132.69L377.645 133.797L377.728 133.753L377.574 131.983L377.415 126.899L378.941 126.087L382.642 133.046L381.52 133.642L379.25 129.373L378.756 128.344L378.673 128.388L378.783 129.622L378.91 134.497L377.56 135.215L373.589 132.383L372.628 131.602L372.545 131.646L373.122 132.632L375.392 136.9ZM386.376 131.193C384.662 132.104 382.93 131.627 382.085 130.038C381.229 128.428 381.807 126.735 383.521 125.823C385.245 124.907 386.972 125.374 387.828 126.984C388.673 128.573 388.1 130.276 386.376 131.193ZM385.846 130.196C387.103 129.528 387.307 128.66 386.727 127.569C386.142 126.468 385.302 126.142 384.046 126.81C382.799 127.473 382.6 128.351 383.186 129.452C383.765 130.543 384.6 130.859 385.846 130.196ZM392.508 127.933C390.846 128.816 389.553 128.665 388.918 127.47L388.901 127.439L390.023 126.843L390.067 126.926C390.426 127.601 390.947 127.604 392.028 127.029C393.035 126.493 393.226 126.126 392.983 125.669C392.756 125.243 392.435 125.24 391.643 125.528L390.131 126.093C389.088 126.487 388.275 126.386 387.817 125.524C387.336 124.621 387.814 123.54 389.404 122.696C390.982 121.856 392.275 121.982 392.926 123.207L392.943 123.238L391.832 123.829L391.799 123.767C391.473 123.154 390.99 122.998 389.847 123.605C388.902 124.108 388.68 124.492 388.94 124.98C389.155 125.386 389.44 125.421 390.274 125.11L391.557 124.641C392.866 124.145 393.648 124.263 394.1 125.114C394.614 126.08 393.962 127.16 392.508 127.933ZM399.058 124.317L397.874 124.947C396.762 125.537 395.817 125.414 395.149 124.157L393.829 121.675L392.957 122.139L392.46 121.204L393.332 120.74L392.73 119.608L393.842 119.017L394.444 120.149L396.313 119.155L396.81 120.09L394.941 121.084L396.227 123.504C396.564 124.137 396.943 124.149 397.587 123.807L398.522 123.309L399.058 124.317ZM402.656 122.404L401.534 123L397.834 116.041L401.241 114.23C402.789 113.407 404.318 113.726 405.14 115.274C405.958 116.811 405.373 118.268 403.826 119.091L401.541 120.306L402.656 122.404ZM401.673 115.292L399.492 116.452L401.005 119.298L403.186 118.138C404.235 117.581 404.565 116.899 404.019 115.87C403.472 114.842 402.722 114.735 401.673 115.292ZM410.912 118.147C409.198 119.058 407.466 118.581 406.621 116.992C405.765 115.382 406.343 113.689 408.057 112.777C409.781 111.861 411.508 112.328 412.364 113.938C413.209 115.527 412.636 117.23 410.912 118.147ZM410.382 117.15C411.639 116.482 411.843 115.614 411.263 114.523C410.678 113.422 409.838 113.096 408.582 113.764C407.335 114.427 407.136 115.305 407.722 116.406C408.301 117.497 409.136 117.813 410.382 117.15ZM416.609 117.25L415.487 117.846L411.803 110.919L412.832 110.372L413.594 111.805L413.687 111.756C413.387 110.69 413.805 109.721 415.02 109.075C416.619 108.225 418.103 108.835 418.953 110.434C419.804 112.034 419.495 113.583 417.885 114.439C416.722 115.058 415.648 114.843 414.938 114.008L414.897 114.03L416.609 117.25ZM414.344 112.992C414.908 114.051 415.859 114.211 416.96 113.626C418.071 113.035 418.489 112.267 417.831 111.031C417.169 109.784 416.294 109.717 415.213 110.291C414.06 110.904 413.704 111.787 414.295 112.898L414.344 112.992ZM423.306 111.557C421.851 112.331 420.632 111.74 419.997 110.546L418.345 107.44L419.457 106.849L420.948 109.654C421.461 110.62 422.167 110.87 423.258 110.29C424.401 109.683 424.621 108.82 424.025 107.698L422.666 105.143L423.777 104.552L426.522 109.714L425.494 110.261L424.643 108.661L424.581 108.694C424.879 109.655 424.635 110.851 423.306 111.557ZM428.663 108.576L427.541 109.172L423.841 102.213L424.963 101.617L428.663 108.576ZM431.273 107.321C430.203 107.89 429.263 107.75 428.81 106.898C428.385 106.099 428.808 105.341 429.765 104.685L431.98 103.188L431.82 102.887C431.367 102.035 430.833 101.933 429.846 102.457C428.891 102.965 428.589 103.526 428.992 104.284L429.014 104.325L427.903 104.916L427.881 104.875C427.257 103.701 427.764 102.299 429.405 101.426C431.046 100.554 432.258 101.055 432.915 102.291L434.583 105.428L433.555 105.974L432.87 104.687L432.798 104.725C432.991 105.741 432.447 106.697 431.273 107.321ZM429.894 106.229C430.114 106.645 430.5 106.693 431.144 106.351C432.317 105.727 432.875 104.871 432.334 103.853L430.43 105.158C429.887 105.54 429.678 105.824 429.894 106.229ZM436.706 104.299L435.585 104.895L432.84 99.7333L433.868 99.1865L434.608 100.578L434.681 100.54C434.395 99.6259 434.602 98.663 435.662 98.0997C436.835 97.4756 437.792 98.0463 438.311 99.0226L438.67 99.6977L437.558 100.289L437.315 99.8317C436.923 99.0942 436.429 98.9171 435.661 99.3258C434.778 99.7952 434.674 100.477 435.166 101.401L436.706 104.299ZM445.854 99.435L442.686 101.119L438.986 94.1604L442.154 92.4761C444.314 91.3274 446.382 91.9334 447.525 94.0834C448.668 96.2334 448.014 98.2863 445.854 99.435ZM442.69 93.4835L440.633 94.577L443.262 99.521L445.318 98.4275C446.928 97.5715 447.291 96.4994 446.341 94.7129C445.391 92.9265 444.299 92.6275 442.69 93.4835ZM452.863 95.8417C451.17 96.7418 449.55 96.3772 448.633 94.653C447.777 93.0431 448.304 91.3776 449.987 90.4829C451.586 89.6324 453.146 89.9354 453.98 91.5038C454.08 91.6907 454.146 91.8416 454.198 92.014L449.815 94.3445C450.387 95.3195 451.157 95.5897 452.351 94.9546C453.431 94.3803 453.69 93.7896 453.364 93.1768L453.32 93.0937L454.442 92.4973L454.492 92.5908C455.077 93.6918 454.4 95.0243 452.863 95.8417ZM450.435 91.3768C449.293 91.9843 449.065 92.7583 449.494 93.7158L452.849 91.932L452.838 91.9113C452.33 90.9557 451.536 90.7914 450.435 91.3768ZM457.439 93.2753L456.317 93.8718L452.617 86.9128L453.739 86.3164L457.439 93.2753ZM456.534 86.3621L455.412 86.9585L454.777 85.7641L455.899 85.1677L456.534 86.3621ZM459.599 92.1266L458.477 92.723L455.733 87.561L456.854 86.9645L459.599 92.1266ZM463.951 89.8126L462.58 90.5416L457.426 86.6607L458.662 86.0035L462.665 89.0975L462.748 89.0534L462.422 84.0044L463.637 83.3582L463.951 89.8126ZM469.609 86.9376C467.916 87.8378 466.296 87.4731 465.38 85.749C464.524 84.1391 465.05 82.4735 466.733 81.5788C468.332 80.7284 469.892 81.0313 470.726 82.5997C470.826 82.7866 470.893 82.9376 470.944 83.1099L466.561 85.4405C467.133 86.4155 467.903 86.6856 469.097 86.0505C470.177 85.4762 470.436 84.8856 470.11 84.2728L470.066 84.1897L471.188 83.5932L471.238 83.6867C471.823 84.7877 471.146 86.1202 469.609 86.9376ZM467.181 82.4727C466.039 83.0802 465.811 83.8542 466.24 84.8118L469.595 83.028L469.584 83.0072C469.076 82.0516 468.282 81.8873 467.181 82.4727ZM474.185 84.3713L473.063 84.9677L470.318 79.8056L471.347 79.2589L472.087 80.6507L472.159 80.612C471.873 79.6983 472.081 78.7353 473.14 78.172C474.314 77.548 475.27 78.1187 475.789 79.095L476.148 79.7701L475.037 80.361L474.794 79.904C474.402 79.1666 473.908 78.9895 473.139 79.3982C472.256 79.8676 472.152 80.549 472.644 81.4734L474.185 84.3713ZM480.097 83.4925L479.36 83.8846L478.818 82.8668L479.826 82.3311C480.283 82.0881 480.404 81.864 480.372 81.4281L480.353 81.0917L475.063 77.2827L476.32 76.6145L479.097 78.6551L480.263 79.6205L480.346 79.5763L480.172 78.0704L479.934 74.6926L481.17 74.0354L481.523 81.1887C481.589 82.3395 481.156 82.9292 480.097 83.4925Z" fill="white"/>
<g clip-path="url(#clip0_4_65)">
<path d="M110.061 265.476C108.149 266.493 105.775 265.767 104.758 263.855L103.054 260.649C102.927 260.41 102.863 260.291 102.847 260.177C102.82 259.986 102.879 259.792 103.009 259.649C103.086 259.563 103.205 259.5 103.444 259.373L108.701 256.577C108.94 256.45 109.059 256.387 109.173 256.371C109.365 256.344 109.558 256.403 109.702 256.532C109.787 256.609 109.851 256.729 109.978 256.967L111.682 260.173C112.699 262.085 111.973 264.46 110.061 265.476ZM110.061 265.476L110.981 267.207M110.148 257.288L111.591 256.521C111.86 256.378 111.994 256.307 112.124 256.294C112.296 256.278 112.468 256.33 112.602 256.44C112.702 256.523 112.774 256.658 112.917 256.926L113.07 257.215C113.355 257.751 113.498 258.02 113.556 258.271C113.714 258.954 113.495 259.668 112.983 260.146C112.794 260.322 112.526 260.465 111.989 260.75M103.224 260.97L101.781 261.737C101.513 261.88 101.378 261.951 101.295 262.052C101.185 262.185 101.133 262.357 101.149 262.53C101.162 262.659 101.233 262.794 101.376 263.063L101.529 263.351C101.815 263.888 101.957 264.156 102.134 264.345C102.611 264.857 103.326 265.076 104.008 264.918C104.26 264.86 104.528 264.717 105.065 264.432M109.58 270.913L114.837 268.118C114.979 268.042 115.033 267.867 114.957 267.725C114.355 266.592 112.948 266.162 111.815 266.764L110.148 267.65C109.015 268.253 108.585 269.66 109.187 270.793C109.263 270.935 109.438 270.988 109.58 270.913Z" stroke="#AAFF55" stroke-width="1.30704" stroke-linecap="round" stroke-linejoin="round"/>
</g>
<circle cx="109.141" cy="263.745" r="15.3578" transform="rotate(-28 109.141 263.745)" stroke="#AAFF55" stroke-width="0.653521"/>
<path d="M131.427 245.894L129.682 246.822L129.025 238.245L131.248 237.063L138.012 242.393L136.226 243.343L134.754 242.153L131.274 244.004L131.427 245.894ZM130.979 240.417L131.131 242.281L133.406 241.072L131.945 239.903L130.945 239.049L130.831 239.11L130.979 240.417ZM141.204 240.829C139.417 241.779 137.712 241.327 136.839 239.686C135.955 238.024 136.54 236.367 138.327 235.418C139.999 234.528 141.616 234.814 142.334 236.164L142.412 236.31L140.864 237.133L140.82 237.05C140.466 236.385 139.851 236.406 139.041 236.836C138.117 237.328 137.873 237.897 138.387 238.863C138.895 239.819 139.503 239.935 140.427 239.443C141.237 239.013 141.598 238.514 141.245 237.849L141.201 237.766L142.748 236.943L142.826 237.089C143.538 238.429 142.876 239.94 141.204 240.829ZM146.192 238.044L144.634 238.872L140.934 231.913L142.492 231.085L144.27 234.429L144.353 234.385C144.05 233.414 144.232 232.278 145.561 231.571C146.963 230.825 148.135 231.375 148.775 232.58L150.471 235.768L148.913 236.597L147.466 233.876C147.002 233.003 146.462 232.89 145.486 233.409C144.437 233.967 144.342 234.564 144.805 235.437L146.192 238.044ZM149.767 228.789L148.209 229.617L147.557 228.391L149.115 227.563L149.767 228.789ZM152.815 234.522L151.257 235.35L148.49 230.147L150.048 229.318L152.815 234.522ZM156.449 232.723C154.714 233.645 153.077 233.423 152.094 231.575C151.21 229.913 151.826 228.24 153.54 227.328C155.244 226.423 156.851 226.714 157.718 228.345C157.817 228.532 157.868 228.678 157.941 228.865L153.703 231.119C154.17 231.896 154.726 232.04 155.734 231.504C156.658 231.013 156.853 230.603 156.616 230.156L156.561 230.052L158.119 229.224L158.179 229.338C158.781 230.47 158.1 231.845 156.449 232.723ZM154.155 228.56C153.231 229.052 153.002 229.573 153.288 230.287L156.051 228.818C155.645 228.155 155.069 228.074 154.155 228.56ZM163.732 228.717L161.811 229.739L156.676 225.794L158.411 224.872L161.929 227.731L162.033 227.676L161.641 223.154L163.344 222.249L163.732 228.717ZM169.34 225.869C167.606 226.791 165.969 226.569 164.986 224.72C164.102 223.058 164.718 221.385 166.432 220.474C168.135 219.568 169.742 219.859 170.609 221.49C170.709 221.677 170.76 221.823 170.833 222.011L166.595 224.264C167.062 225.042 167.618 225.185 168.626 224.65C169.55 224.158 169.745 223.748 169.508 223.302L169.452 223.198L171.01 222.369L171.071 222.484C171.673 223.616 170.992 224.99 169.34 225.869ZM167.047 221.706C166.123 222.197 165.893 222.718 166.18 223.432L168.943 221.963C168.537 221.3 167.961 221.22 167.047 221.706ZM174.308 223.094L172.75 223.922L169.983 218.719L171.427 217.951L172.266 219.53L172.35 219.486C172.01 218.547 172.099 217.461 173.408 216.765C174.612 216.124 175.617 216.536 176.245 217.441L176.339 217.391C175.994 216.442 176.087 215.34 177.427 214.627C178.767 213.915 179.891 214.45 180.52 215.634L182.243 218.875L180.685 219.703L179.238 216.982C178.78 216.12 178.308 215.958 177.414 216.433C176.469 216.935 176.398 217.453 176.879 218.356L178.276 220.984L176.718 221.813L175.271 219.091C174.812 218.229 174.34 218.067 173.447 218.542C172.502 219.045 172.43 219.562 172.911 220.466L174.308 223.094ZM185.853 217.088C184.119 218.011 182.482 217.789 181.499 215.94C180.615 214.278 181.231 212.605 182.945 211.694C184.648 210.788 186.255 211.079 187.122 212.71C187.222 212.897 187.273 213.043 187.346 213.231L183.108 215.484C183.575 216.261 184.131 216.405 185.139 215.87C186.063 215.378 186.258 214.968 186.02 214.522L185.965 214.418L187.523 213.589L187.584 213.704C188.186 214.836 187.505 216.21 185.853 217.088ZM183.56 212.925C182.635 213.417 182.406 213.938 182.693 214.652L185.455 213.183C185.049 212.52 184.474 212.44 183.56 212.925ZM190.821 214.314L189.263 215.142L186.496 209.939L187.94 209.171L188.79 210.771L188.884 210.721C188.555 209.777 188.736 208.614 190.097 207.891C191.52 207.134 192.681 207.689 193.294 208.842L195.017 212.083L193.459 212.911L192.012 210.19C191.57 209.359 191.04 209.188 190.084 209.696C189.098 210.221 188.954 210.803 189.424 211.686L190.821 214.314ZM199.472 209.714L198.184 210.399C196.968 211.045 195.927 210.866 195.231 209.557L194.149 207.522L193.329 207.958L192.644 206.67L193.464 206.234L192.929 205.226L194.487 204.398L195.022 205.405L196.705 204.511L197.39 205.799L195.707 206.693L196.696 208.552C196.972 209.072 197.241 209.102 197.791 208.809L198.726 208.312L199.472 209.714ZM202.738 208.111C200.983 209.044 199.652 208.872 199.012 207.667L198.995 207.636L200.553 206.808L200.603 206.901C200.851 207.368 201.208 207.338 202.091 206.869C202.922 206.427 203.048 206.187 202.882 205.876C202.727 205.585 202.528 205.585 201.871 205.827L200.312 206.43C199.213 206.868 198.383 206.709 197.919 205.837C197.433 204.923 197.825 203.782 199.612 202.832C201.315 201.926 202.623 202.056 203.297 203.324L203.314 203.355L201.756 204.183L201.723 204.121C201.496 203.695 201.172 203.587 200.217 204.095C199.438 204.51 199.312 204.75 199.489 205.082C199.633 205.352 199.839 205.389 200.568 205.107L201.752 204.652C203.226 204.067 203.994 204.259 204.452 205.121C204.972 206.097 204.348 207.255 202.738 208.111Z" fill="white"/>
<path d="M142.833 260.555L138.792 262.703L135.092 255.744L138.987 253.673C140.316 252.966 141.442 253.154 142.027 254.255C142.464 255.075 142.333 255.931 141.339 256.619L141.378 256.692C142.634 256.197 143.558 256.532 144.044 257.446C144.679 258.64 144.266 259.792 142.833 260.555ZM136.739 256.16L137.755 258.072L140.383 256.674C141.162 256.26 141.397 255.749 141.049 255.095C140.701 254.44 140.177 254.332 139.398 254.747L136.739 256.16ZM138.247 258.996L139.368 261.104L142.172 259.613C143.003 259.172 143.243 258.645 142.839 257.886C142.453 257.159 141.872 257.069 141.051 257.505L138.247 258.996ZM148.444 257.704C146.751 258.604 145.132 258.24 144.215 256.516C143.359 254.906 143.885 253.24 145.568 252.345C147.168 251.495 148.728 251.798 149.561 253.366C149.661 253.553 149.728 253.704 149.779 253.876L145.396 256.207C145.968 257.182 146.738 257.452 147.932 256.817C149.013 256.243 149.271 255.652 148.946 255.039L148.901 254.956L150.023 254.36L150.073 254.453C150.658 255.554 149.981 256.887 148.444 257.704ZM146.017 253.239C144.874 253.847 144.646 254.621 145.075 255.578L148.43 253.795L148.419 253.774C147.911 252.818 147.118 252.654 146.017 253.239ZM154.394 254.54C152.732 255.424 151.439 255.272 150.804 254.078L150.788 254.047L151.909 253.45L151.954 253.533C152.313 254.208 152.834 254.211 153.914 253.637C154.921 253.101 155.112 252.733 154.869 252.276C154.643 251.85 154.322 251.848 153.529 252.136L152.017 252.7C150.974 253.095 150.161 252.994 149.703 252.132C149.223 251.228 149.701 250.148 151.29 249.303C152.869 248.464 154.161 248.589 154.813 249.815L154.829 249.846L153.718 250.437L153.685 250.374C153.359 249.762 152.876 249.605 151.734 250.213C150.788 250.715 150.566 251.1 150.826 251.588C151.041 251.993 151.326 252.028 152.161 251.718L153.443 251.249C154.752 250.753 155.534 250.87 155.987 251.722C156.5 252.688 155.848 253.767 154.394 254.54ZM160.944 250.925L159.76 251.554C158.649 252.145 157.704 252.021 157.035 250.765L155.715 248.282L154.843 248.746L154.346 247.811L155.218 247.347L154.616 246.215L155.728 245.624L156.33 246.757L158.199 245.762L158.696 246.697L156.827 247.691L158.113 250.111C158.45 250.745 158.83 250.756 159.474 250.414L160.408 249.917L160.944 250.925ZM166.651 247.89L163.483 249.574L159.783 242.616L162.951 240.931C165.111 239.782 167.179 240.389 168.322 242.538C169.465 244.688 168.811 246.741 166.651 247.89ZM163.486 241.939L161.43 243.032L164.059 247.976L166.115 246.883C167.725 246.027 168.088 244.955 167.138 243.168C166.188 241.382 165.096 241.083 163.486 241.939ZM173.659 244.297C171.966 245.197 170.347 244.832 169.43 243.108C168.574 241.498 169.101 239.833 170.784 238.938C172.383 238.088 173.943 238.391 174.777 239.959C174.876 240.146 174.943 240.297 174.995 240.469L170.612 242.8C171.184 243.775 171.953 244.045 173.148 243.41C174.228 242.835 174.487 242.245 174.161 241.632L174.117 241.549L175.239 240.952L175.288 241.046C175.874 242.147 175.197 243.479 173.659 244.297ZM171.232 239.832C170.09 240.439 169.862 241.213 170.291 242.171L173.646 240.387L173.635 240.366C173.127 239.411 172.333 239.247 171.232 239.832ZM178.235 241.73L177.114 242.327L173.414 235.368L174.535 234.772L178.235 241.73ZM177.331 234.817L176.209 235.414L175.574 234.219L176.696 233.623L177.331 234.817ZM180.396 240.582L179.274 241.178L176.529 236.016L177.651 235.42L180.396 240.582ZM184.748 238.268L183.377 238.997L178.223 235.116L179.459 234.459L183.462 237.553L183.545 237.508L183.218 232.46L184.434 231.813L184.748 238.268ZM190.406 235.393C188.713 236.293 187.093 235.928 186.176 234.204C185.32 232.594 185.847 230.929 187.53 230.034C189.129 229.183 190.689 229.486 191.523 231.055C191.622 231.242 191.689 231.393 191.741 231.565L187.358 233.896C187.93 234.871 188.7 235.141 189.894 234.506C190.974 233.931 191.233 233.341 190.907 232.728L190.863 232.645L191.985 232.048L192.034 232.142C192.62 233.243 191.943 234.575 190.406 235.393ZM187.978 230.928C186.836 231.535 186.608 232.309 187.037 233.267L190.392 231.483L190.381 231.462C189.873 230.507 189.079 230.342 187.978 230.928ZM194.982 232.826L193.86 233.423L191.115 228.261L192.143 227.714L192.883 229.106L192.956 229.067C192.67 228.153 192.878 227.19 193.937 226.627C195.111 226.003 196.067 226.574 196.586 227.55L196.945 228.225L195.834 228.816L195.591 228.359C195.199 227.622 194.705 227.445 193.936 227.853C193.053 228.323 192.949 229.004 193.441 229.929L194.982 232.826ZM200.894 231.948L200.156 232.34L199.615 231.322L200.623 230.786C201.08 230.543 201.2 230.319 201.168 229.883L201.149 229.547L195.86 225.738L197.117 225.07L199.894 227.11L201.06 228.076L201.143 228.031L200.969 226.526L200.731 223.148L201.967 222.491L202.32 229.644C202.386 230.795 201.953 231.384 200.894 231.948ZM208.157 225.821L207.036 226.417L203.336 219.458L204.457 218.862L208.157 225.821ZM210.318 224.672L209.196 225.268L206.451 220.106L207.48 219.56L208.33 221.159L208.403 221.12C208.095 220.165 208.338 218.97 209.647 218.274C211.08 217.512 212.3 218.102 212.935 219.297L214.587 222.402L213.465 222.999L211.974 220.194C211.46 219.228 210.764 218.972 209.695 219.541C208.563 220.143 208.363 220.995 208.959 222.117L210.318 224.672ZM220.82 219.088L219.709 219.679L216.544 213.727L213.802 215.185L213.266 214.178L219.851 210.677L220.387 211.684L217.655 213.136L220.82 219.088ZM225.33 216.69L224.208 217.287L220.508 210.328L221.629 209.731L223.424 213.107L223.487 213.074C223.199 212.107 223.402 210.96 224.721 210.259C226.144 209.502 227.337 210.067 228.005 211.324L229.64 214.398L228.529 214.989L227.037 212.185C226.485 211.146 225.797 210.979 224.727 211.548C223.501 212.2 223.419 213.096 223.999 214.187L225.33 216.69ZM233.3 212.585C231.607 213.485 229.988 213.121 229.071 211.397C228.215 209.787 228.742 208.121 230.424 207.226C232.024 206.376 233.584 206.679 234.418 208.247C234.517 208.434 234.584 208.585 234.636 208.757L230.253 211.088C230.825 212.063 231.594 212.333 232.789 211.698C233.869 211.124 234.128 210.533 233.802 209.92L233.758 209.837L234.88 209.241L234.929 209.334C235.515 210.435 234.838 211.768 233.3 212.585ZM230.873 208.12C229.731 208.728 229.503 209.502 229.932 210.459L233.287 208.676L233.276 208.655C232.768 207.699 231.974 207.535 230.873 208.12ZM241.971 207.975C239.811 209.124 237.626 208.473 236.472 206.302C235.318 204.132 236 201.957 238.16 200.808C240.123 199.765 242.047 200.074 242.93 201.736L243.008 201.881L241.772 202.539L241.694 202.393C241.131 201.334 240.152 201.122 238.74 201.873C237.109 202.74 236.734 203.938 237.656 205.673C238.578 207.407 239.776 207.756 241.407 206.889C242.82 206.138 243.196 205.218 242.628 204.149L242.556 204.013L243.792 203.356L243.864 203.491C244.753 205.164 243.944 206.926 241.971 207.975ZM248.77 204.36C247.056 205.271 245.323 204.794 244.478 203.205C243.622 201.595 244.201 199.902 245.914 198.99C247.638 198.074 249.366 198.541 250.222 200.151C251.067 201.74 250.494 203.443 248.77 204.36ZM248.239 203.363C249.496 202.695 249.701 201.827 249.121 200.736C248.535 199.635 247.696 199.309 246.439 199.977C245.193 200.64 244.994 201.518 245.579 202.619C246.159 203.71 246.993 204.026 248.239 203.363ZM254.611 201.254C253.156 202.027 251.937 201.437 251.302 200.243L249.65 197.137L250.762 196.546L252.253 199.351C252.766 200.316 253.472 200.567 254.563 199.987C255.706 199.38 255.926 198.516 255.33 197.395L253.971 194.84L255.082 194.249L257.827 199.411L256.799 199.958L255.948 198.358L255.886 198.391C256.184 199.352 255.94 200.547 254.611 201.254ZM259.968 198.273L258.846 198.869L256.101 193.707L257.13 193.16L257.98 194.76L258.053 194.721C257.745 193.766 257.989 192.57 259.297 191.874C260.731 191.112 261.95 191.703 262.586 192.897L264.237 196.003L263.115 196.599L261.624 193.795C261.11 192.829 260.415 192.573 259.345 193.142C258.213 193.743 258.013 194.596 258.609 195.717L259.968 198.273ZM268.622 193.671L267.438 194.301C266.327 194.891 265.382 194.768 264.714 193.511L263.394 191.029L262.521 191.493L262.024 190.558L262.897 190.094L262.295 188.962L263.406 188.371L264.008 189.503L265.878 188.509L266.375 189.444L264.505 190.438L265.792 192.858C266.129 193.491 266.508 193.503 267.152 193.16L268.087 192.663L268.622 193.671ZM270.446 192.701L269.324 193.298L266.579 188.136L267.607 187.589L268.348 188.981L268.42 188.942C268.134 188.028 268.342 187.065 269.401 186.502C270.575 185.878 271.531 186.449 272.05 187.425L272.409 188.1L271.298 188.691L271.055 188.234C270.663 187.497 270.169 187.32 269.4 187.728C268.517 188.198 268.413 188.879 268.905 189.804L270.446 192.701ZM276.358 191.823L275.62 192.215L275.079 191.197L276.087 190.661C276.544 190.418 276.664 190.194 276.632 189.758L276.614 189.422L271.324 185.613L272.581 184.945L275.358 186.985L276.524 187.951L276.607 187.907L276.433 186.401L276.195 183.023L277.431 182.366L277.784 189.519C277.85 190.67 277.417 191.259 276.358 191.823Z" fill="white"/>
<line x1="308.912" y1="137.726" x2="307.498" y2="178.219" stroke="white" stroke-width="0.653522"/>
<path d="M472.09 267.299H469.573L466.303 259.417H468.432L470.796 265.511H470.914L473.243 259.417H475.361L472.09 267.299ZM477.501 267.299H475.736V259.417H482.406V261.005H477.501V262.781H482.229V264.358H477.501V267.299ZM487.051 267.299H483.251V259.417H487.051C489.58 259.417 491.18 260.888 491.18 263.358C491.18 265.828 489.58 267.299 487.051 267.299ZM487.051 261.005H485.016V265.711H487.051C488.651 265.711 489.298 265.252 489.298 263.358C489.298 261.464 488.651 261.005 487.051 261.005ZM495.074 267.416C493.11 267.416 491.769 266.452 491.769 264.358C491.769 262.476 493.098 261.287 495.039 261.287C496.968 261.287 498.25 262.299 498.25 264.146C498.25 264.358 498.227 264.511 498.203 264.711H493.404C493.451 265.616 493.874 266.005 495.015 266.005C496.062 266.005 496.427 265.734 496.427 265.228V265.111H498.191V265.24C498.191 266.522 496.945 267.416 495.074 267.416ZM495.004 262.664C493.957 262.664 493.51 263.017 493.427 263.781H496.556C496.509 263.005 496.039 262.664 495.004 262.664ZM500.763 267.299H498.999V259.417H500.763V267.299ZM503.451 260.805H501.687V259.417H503.451V260.805ZM503.451 267.299H501.687V261.405H503.451V267.299ZM508.763 267.299H506.586L503.904 261.405H505.869L507.633 265.581H507.751L509.527 261.405H511.456L508.763 267.299ZM515.051 267.416C513.087 267.416 511.746 266.452 511.746 264.358C511.746 262.476 513.075 261.287 515.016 261.287C516.945 261.287 518.227 262.299 518.227 264.146C518.227 264.358 518.204 264.511 518.18 264.711H513.381C513.428 265.616 513.851 266.005 514.992 266.005C516.039 266.005 516.404 265.734 516.404 265.228V265.111H518.169V265.24C518.169 266.522 516.922 267.416 515.051 267.416ZM514.981 262.664C513.934 262.664 513.487 263.017 513.404 263.781H516.533C516.486 263.005 516.016 262.664 514.981 262.664ZM520.74 267.299H518.976V261.405H520.611V262.97H520.717C520.881 262.017 521.505 261.287 522.693 261.287C524.01 261.287 524.551 262.193 524.551 263.346V264.322H522.787V263.711C522.787 263.064 522.528 262.781 521.811 262.781C521.022 262.781 520.74 263.146 520.74 263.887V267.299ZM526.32 269.298H525.355V267.699H526.802C527.237 267.699 527.426 267.581 527.543 267.322L524.661 261.405H526.661L527.908 264.099L528.402 265.487H528.519L528.99 264.087L530.108 261.405H532.072L529.155 267.722C528.59 268.957 527.802 269.298 526.32 269.298Z" fill="black"/>
<path d="M467.652 285.904H466.397L469.524 278.898H471.113L474.239 285.904H472.964L472.159 284.085H468.457L467.652 285.904ZM469.858 280.937L468.907 283.071H471.709L470.758 280.937L470.35 279.944H470.266L469.858 280.937ZM475.892 285.904H474.762V278.898H475.892V285.904ZM478.067 285.904H476.937V278.898H478.067V285.904ZM482.029 285.904H480.899V278.898H486.472V279.913H482.029V282.088H486.316V283.091H482.029V285.904ZM489.968 286.009C488.243 286.009 487.082 284.911 487.082 283.311C487.082 281.69 488.243 280.603 489.968 280.603C491.704 280.603 492.864 281.69 492.864 283.311C492.864 284.911 491.704 286.009 489.968 286.009ZM489.968 285.005C491.233 285.005 491.756 284.409 491.756 283.311C491.756 282.203 491.233 281.596 489.968 281.596C488.713 281.596 488.19 282.203 488.19 283.311C488.19 284.409 488.713 285.005 489.968 285.005ZM494.813 285.904H493.684V280.707H494.719V282.109H494.792C494.949 281.272 495.514 280.603 496.58 280.603C497.762 280.603 498.274 281.45 498.274 282.433V283.112H497.155V282.652C497.155 281.91 496.842 281.565 496.068 281.565C495.179 281.565 494.813 282.056 494.813 282.987V285.904ZM504.367 285.904H503.249V283.489L500.174 278.898H501.555L503.207 281.387L503.792 282.276H503.876L504.451 281.387L506.093 278.898H507.483L504.367 283.51V285.904ZM510.574 286.009C508.849 286.009 507.688 284.911 507.688 283.311C507.688 281.69 508.849 280.603 510.574 280.603C512.31 280.603 513.471 281.69 513.471 283.311C513.471 284.911 512.31 286.009 510.574 286.009ZM510.574 285.005C511.839 285.005 512.362 284.409 512.362 283.311C512.362 282.203 511.839 281.596 510.574 281.596C509.319 281.596 508.797 282.203 508.797 283.311C508.797 284.409 509.319 285.005 510.574 285.005ZM516.455 286.009C514.991 286.009 514.28 285.036 514.28 283.834V280.707H515.398V283.531C515.398 284.503 515.848 284.994 516.946 284.994C518.096 284.994 518.63 284.409 518.63 283.28V280.707H519.748V285.904H518.713V284.294H518.65C518.483 285.172 517.793 286.009 516.455 286.009Z" fill="black"/>
<path d="M59.7244 330.79L39.9047 341.328L33.5882 263.96L58.856 250.525L119.559 298.975L99.2698 309.763L88.2862 300.663L58.4157 316.545L59.7244 330.79ZM55.6128 286.347L56.6443 297.125L73.3642 288.234L65.0061 281.353L55.2293 272.936L54.0082 273.585L55.6128 286.347Z" fill="black"/>
<defs>
<filter id="filter0_f_4_65" x="203.036" y="108.421" width="313.025" height="318.499" filterUnits="userSpaceOnUse" color-interpolation-filters="sRGB">
<feFlood flood-opacity="0" result="BackgroundImageFix"/>
<feBlend mode="normal" in="SourceGraphic" in2="BackgroundImageFix" result="shape"/>
<feGaussianBlur stdDeviation="65.3521" result="effect1_foregroundBlur_4_65"/>
</filter>
<clipPath id="clip0_4_65">
<rect width="15.6845" height="15.6845" fill="white" transform="translate(98.5345 260.503) rotate(-28)"/>
</clipPath>
</defs>
</svg>
