<svg width="100" height="30" viewBox="0 0 100 30" fill="none" xmlns="http://www.w3.org/2000/svg">
<path d="M12 23.9401C13.5 23.9401 14.75 25.0001 16 25.0001C19 25.0001 22 17.0001 22 12.7801C21.9659 11.4848 21.4212 10.2555 20.4846 9.36012C19.548 8.46474 18.2955 7.97588 17 8.00007C14.78 8.00007 13 9.44007 12 10.0001C11 9.44007 9.22 8.00007 7 8.00007C5.70375 7.97323 4.4497 8.46122 3.51253 9.35716C2.57536 10.2531 2.03147 11.4839 2 12.7801C2 17.0001 5 25.0001 8 25.0001C9.25 25.0001 10.5 23.9401 12 23.9401Z" fill="#9EFF42" stroke="#9EFF42" stroke-width="2" stroke-linecap="round" stroke-linejoin="round"/>
<path d="M10 5C11 5.5 12 7 12 10" stroke="#9EFF42" stroke-width="2" stroke-linecap="round" stroke-linejoin="round"/>
<path d="M36.384 25L30.264 7.12H34.344L38.952 21.472H38.136L42.744 7.12H46.824L40.704 25H36.384ZM48.6699 25V7.12H60.9099V10.36H52.3899V14.896H59.7099V18.136H52.3899V25H48.6699ZM62.7559 25V7.12H68.5879C70.5239 7.12 72.2039 7.504 73.6279 8.272C75.0519 9.04 76.1559 10.096 76.9399 11.44C77.7239 12.784 78.1159 14.32 78.1159 16.048C78.1159 17.776 77.7239 19.32 76.9399 20.68C76.1559 22.024 75.0519 23.08 73.6279 23.848C72.2039 24.616 70.5239 25 68.5879 25H62.7559ZM66.4759 21.76H68.6839C69.8519 21.76 70.8599 21.528 71.7079 21.064C72.5559 20.584 73.2119 19.92 73.6759 19.072C74.1559 18.208 74.3959 17.2 74.3959 16.048C74.3959 14.88 74.1559 13.872 73.6759 13.024C73.2119 12.176 72.5559 11.52 71.7079 11.056C70.8599 10.592 69.8519 10.36 68.6839 10.36H66.4759V21.76ZM86.5461 25.288C85.1541 25.288 83.9461 24.984 82.9221 24.376C81.8981 23.752 81.1061 22.92 80.5461 21.88C79.9861 20.84 79.7061 19.688 79.7061 18.424C79.7061 17.112 79.9941 15.944 80.5701 14.92C81.1621 13.896 81.9541 13.088 82.9461 12.496C83.9381 11.904 85.0581 11.608 86.3061 11.608C87.3461 11.608 88.2661 11.776 89.0661 12.112C89.8661 12.432 90.5381 12.888 91.0821 13.48C91.6421 14.072 92.0661 14.76 92.3541 15.544C92.6421 16.312 92.7861 17.152 92.7861 18.064C92.7861 18.32 92.7701 18.576 92.7381 18.832C92.7221 19.072 92.6821 19.28 92.6181 19.456H82.8021V16.816H90.5781L88.8741 18.064C89.0341 17.376 89.0261 16.768 88.8501 16.24C88.6741 15.696 88.3621 15.272 87.9141 14.968C87.4821 14.648 86.9461 14.488 86.3061 14.488C85.6821 14.488 85.1461 14.64 84.6981 14.944C84.2501 15.248 83.9141 15.696 83.6901 16.288C83.4661 16.88 83.3781 17.6 83.4261 18.448C83.3621 19.184 83.4501 19.832 83.6901 20.392C83.9301 20.952 84.2981 21.392 84.7941 21.712C85.2901 22.016 85.8901 22.168 86.5941 22.168C87.2341 22.168 87.7781 22.04 88.2261 21.784C88.6901 21.528 89.0501 21.176 89.3061 20.728L92.1861 22.096C91.9301 22.736 91.5221 23.296 90.9621 23.776C90.4181 24.256 89.7701 24.632 89.0181 24.904C88.2661 25.16 87.4421 25.288 86.5461 25.288ZM94.9059 25V6.832H98.5059V25H94.9059Z" fill="black"/>
</svg>
